999
DXF created by Inkscape
  0
SECTION
  2
HEADER
  9
$ACADVER
  1
AC1014
  9
$HANDSEED
  5
FFFF
  9
$MEASUREMENT
 70
     1
  0
ENDSEC
  0
SECTION
  2
TABLES
  0
TABLE
  2
VPORT
  5
8
330
0
100
AcDbSymbolTable
 70
     4
  0
VPORT
  5
2E
330
8
100
AcDbSymbolTableRecord
100
AcDbViewportTableRecord
  2
*ACTIVE
 70
     0
 10
0.0
 20
0.0
 11
1.0
 21
1.0
 12
210.0
 22
148.5
 13
0.0
 23
0.0
 14
10.0
 24
10.0
 15
10.0
 25
10.0
 16
0.0
 26
0.0
 36
1.0
 17
0.0
 27
0.0
 37
0.0
 40
341.0
 41
1.24
 42
50.0
 43
0.0
 44
0.0
 50
0.0
 51
0.0
 71
     0
 72
   100
 73
     1
 74
     3
 75
     0
 76
     0
 77
     0
 78
     0
  0
ENDTAB
  0
TABLE
  2
LTYPE
  5
5
330
0
100
AcDbSymbolTable
 70
     1
  0
LTYPE
  5
14
330
5
100
AcDbSymbolTableRecord
100
AcDbLinetypeTableRecord
  2
BYBLOCK
 70
     0
  3

 72
    65
 73
     0
 40
0.0
  0
LTYPE
  5
15
330
5
100
AcDbSymbolTableRecord
100
AcDbLinetypeTableRecord
  2
BYLAYER
 70
     0
  3

 72
    65
 73
     0
 40
0.0
  0
LTYPE
  5
16
330
5
100
AcDbSymbolTableRecord
100
AcDbLinetypeTableRecord
  2
CONTINUOUS
 70
     0
  3
Solid line
 72
    65
 73
     0
 40
0.0
  0
ENDTAB
  0
TABLE
  2
LAYER
  5
2
100
AcDbSymbolTable
 70
2
  0
LAYER
  5
50
100
AcDbSymbolTableRecord
100
AcDbLayerTableRecord
  2
0
 70
0
  6
CONTINUOUS
  0
LAYER
  5
51
100
AcDbSymbolTableRecord
100
AcDbLayerTableRecord
  2
Beam
 70
0
  6
CONTINUOUS
  0
ENDTAB
  0
TABLE
  2
STYLE
  5
3
330
0
100
AcDbSymbolTable
 70
     1
  0
STYLE
  5
11
330
3
100
AcDbSymbolTableRecord
100
AcDbTextStyleTableRecord
  2
STANDARD
 70
     0
 40
0.0
 41
1.0
 50
0.0
 71
     0
 42
2.5
  3
txt
  4

  0
ENDTAB
  0
TABLE
  2
VIEW
  5
6
330
0
100
AcDbSymbolTable
 70
     0
  0
ENDTAB
  0
TABLE
  2
UCS
  5
7
330
0
100
AcDbSymbolTable
 70
     0
  0
ENDTAB
  0
TABLE
  2
APPID
  5
9
330
0
100
AcDbSymbolTable
 70
     2
  0
APPID
  5
12
330
9
100
AcDbSymbolTableRecord
100
AcDbRegAppTableRecord
  2
ACAD
 70
     0
  0
ENDTAB
  0
TABLE
  2
DIMSTYLE
  5
A
330
0
100
AcDbSymbolTable
 70
     1
  0
DIMSTYLE
105
27
330
A
100
AcDbSymbolTableRecord
100
AcDbDimStyleTableRecord
  2
ISO-25
 70
     0
  3

  4

  5

  6

  7

 40
1.0
 41
2.5
 42
0.625
 43
3.75
 44
1.25
 45
0.0
 46
0.0
 47
0.0
 48
0.0
140
2.5
141
2.5
142
0.0
143
0.03937007874016
144
1.0
145
0.0
146
1.0
147
0.625
 71
     0
 72
     0
 73
     0
 74
     0
 75
     0
 76
     0
 77
     1
 78
     8
170
     0
171
     3
172
     1
173
     0
174
     0
175
     0
176
     0
177
     0
178
     0
270
     2
271
     2
272
     2
273
     2
274
     3
340
11
275
     0
280
     0
281
     0
282
     0
283
     0
284
     8
285
     0
286
     0
287
     3
288
     0
  0
ENDTAB
  0
TABLE
  2
BLOCK_RECORD
  5
1
330
0
100
AcDbSymbolTable
 70
     1
  0
BLOCK_RECORD
  5
1F
330
1
100
AcDbSymbolTableRecord
100
AcDbBlockTableRecord
  2
*MODEL_SPACE
  0
BLOCK_RECORD
  5
1B
330
1
100
AcDbSymbolTableRecord
100
AcDbBlockTableRecord
  2
*PAPER_SPACE
  0
ENDTAB
  0
ENDSEC
  0
SECTION
  2
BLOCKS
  0
BLOCK
  5
20
330
1F
100
AcDbEntity
  8
0
100
AcDbBlockBegin
  2
*MODEL_SPACE
 70
     0
 10
0.0
 20
0.0
 30
0.0
  3
*MODEL_SPACE
  1

  0
ENDBLK
  5
21
330
1F
100
AcDbEntity
  8
0
100
AcDbBlockEnd
  0
BLOCK
  5
1C
330
1B
100
AcDbEntity
 67
     1
  8
0
100
AcDbBlockBegin
  2
*PAPER_SPACE
  1

  0
ENDBLK
  5
1D
330
1B
100
AcDbEntity
 67
     1
  8
0
100
AcDbBlockEnd
  0
ENDSEC
  0
SECTION
  2
ENTITIES
  0
LINE
  5
100
100
AcDbEntity
  8
Beam
 62
1
100
AcDbLine
 10
9.224433
 20
6.785667
 30
0.0
 11
9.309100
 21
6.711231
 31
0.0
  0
LINE
  5
101
100
AcDbEntity
  8
Beam
 62
1
100
AcDbLine
 10
9.309100
 20
6.711231
 30
0.0
 11
9.433631
 21
6.661136
 31
0.0
  0
LINE
  5
102
100
AcDbEntity
  8
Beam
 62
1
100
AcDbLine
 10
9.433631
 20
6.661136
 30
0.0
 11
9.926814
 21
6.661136
 31
0.0
  0
LINE
  5
103
100
AcDbEntity
  8
Beam
 62
1
100
AcDbLine
 10
9.926814
 20
6.661136
 30
0.0
 11
10.051697
 21
6.711231
 31
0.0
  0
LINE
  5
104
100
AcDbEntity
  8
Beam
 62
1
100
AcDbLine
 10
10.051697
 20
6.711231
 30
0.0
 11
10.151181
 21
6.785667
 31
0.0
  0
LINE
  5
105
100
AcDbEntity
  8
Beam
 62
1
100
AcDbLine
 10
10.151181
 20
6.785667
 30
0.0
 11
10.176228
 21
6.907728
 31
0.0
  0
LINE
  5
106
100
AcDbEntity
  8
Beam
 62
1
100
AcDbLine
 10
10.176228
 20
6.907728
 30
0.0
 11
10.176228
 21
9.927506
 31
0.0
  0
LINE
  5
107
100
AcDbEntity
  8
Beam
 62
1
100
AcDbLine
 10
10.176228
 20
9.927506
 30
0.0
 11
10.151181
 21
10.052036
 31
0.0
  0
LINE
  5
108
100
AcDbEntity
  8
Beam
 62
1
100
AcDbLine
 10
10.151181
 20
10.052036
 30
0.0
 11
10.051697
 21
10.126472
 31
0.0
  0
LINE
  5
109
100
AcDbEntity
  8
Beam
 62
1
100
AcDbLine
 10
10.051697
 20
10.126472
 30
0.0
 11
9.926814
 21
10.176214
 31
0.0
  0
LINE
  5
10a
100
AcDbEntity
  8
Beam
 62
1
100
AcDbLine
 10
9.926814
 20
10.176214
 30
0.0
 11
6.942314
 21
10.176214
 31
0.0
  0
LINE
  5
10b
100
AcDbEntity
  8
Beam
 62
1
100
AcDbLine
 10
6.942314
 20
10.176214
 30
0.0
 11
6.818136
 21
10.126472
 31
0.0
  0
LINE
  5
10c
100
AcDbEntity
  8
Beam
 62
1
100
AcDbLine
 10
6.818136
 20
10.126472
 30
0.0
 11
6.708422
 21
10.052036
 31
0.0
  0
LINE
  5
10d
100
AcDbEntity
  8
Beam
 62
1
100
AcDbLine
 10
6.708422
 20
10.052036
 30
0.0
 11
6.683375
 21
9.927506
 31
0.0
  0
LINE
  5
10e
100
AcDbEntity
  8
Beam
 62
1
100
AcDbLine
 10
6.683375
 20
9.927506
 30
0.0
 11
6.683375
 21
9.432558
 31
0.0
  0
LINE
  5
10f
100
AcDbEntity
  8
Beam
 62
1
100
AcDbLine
 10
6.683375
 20
9.432558
 30
0.0
 11
6.708422
 21
9.308028
 31
0.0
  0
LINE
  5
110
100
AcDbEntity
  8
Beam
 62
1
100
AcDbLine
 10
6.708422
 20
9.308028
 30
0.0
 11
6.818136
 21
9.211014
 31
0.0
  0
LINE
  5
111
100
AcDbEntity
  8
Beam
 62
1
100
AcDbLine
 10
6.818136
 20
9.211014
 30
0.0
 11
6.942314
 21
9.186320
 31
0.0
  0
LINE
  5
112
100
AcDbEntity
  8
Beam
 62
1
100
AcDbLine
 10
6.942314
 20
9.186320
 30
0.0
 11
8.168217
 21
9.186320
 31
0.0
  0
LINE
  5
113
100
AcDbEntity
  8
Beam
 62
1
100
AcDbLine
 10
8.168217
 20
9.186320
 30
0.0
 11
8.258175
 21
9.136578
 31
0.0
  0
LINE
  5
114
100
AcDbEntity
  8
Beam
 62
1
100
AcDbLine
 10
8.258175
 20
9.136578
 30
0.0
 11
8.292394
 21
9.061789
 31
0.0
  0
LINE
  5
115
100
AcDbEntity
  8
Beam
 62
1
100
AcDbLine
 10
8.292394
 20
9.061789
 30
0.0
 11
8.258175
 21
8.987353
 31
0.0
  0
LINE
  5
116
100
AcDbEntity
  8
Beam
 62
1
100
AcDbLine
 10
8.258175
 20
8.987353
 30
0.0
 11
6.185253
 21
7.181483
 31
0.0
  0
LINE
  5
117
100
AcDbEntity
  8
Beam
 62
1
100
AcDbLine
 10
6.185253
 20
7.181483
 30
0.0
 11
5.925961
 21
7.181483
 31
0.0
  0
LINE
  5
118
100
AcDbEntity
  8
Beam
 62
1
100
AcDbLine
 10
5.925961
 20
7.181483
 30
0.0
 11
5.801431
 21
7.156436
 31
0.0
  0
LINE
  5
119
100
AcDbEntity
  8
Beam
 62
1
100
AcDbLine
 10
5.801431
 20
7.156436
 30
0.0
 11
5.717117
 21
7.056953
 31
0.0
  0
LINE
  5
11a
100
AcDbEntity
  8
Beam
 62
1
100
AcDbLine
 10
5.717117
 20
7.056953
 30
0.0
 11
5.704064
 21
7.007211
 31
0.0
  0
LINE
  5
11b
100
AcDbEntity
  8
Beam
 62
1
100
AcDbLine
 10
5.704064
 20
7.007211
 30
0.0
 11
5.679369
 21
7.031906
 31
0.0
  0
LINE
  5
11c
100
AcDbEntity
  8
Beam
 62
1
100
AcDbLine
 10
5.679369
 20
7.031906
 30
0.0
 11
5.592233
 21
7.007211
 31
0.0
  0
LINE
  5
11d
100
AcDbEntity
  8
Beam
 62
1
100
AcDbLine
 10
5.592233
 20
7.007211
 30
0.0
 11
5.567539
 21
6.907728
 31
0.0
  0
LINE
  5
11e
100
AcDbEntity
  8
Beam
 62
1
100
AcDbLine
 10
5.567539
 20
6.907728
 30
0.0
 11
5.592233
 21
6.832939
 31
0.0
  0
LINE
  5
11f
100
AcDbEntity
  8
Beam
 62
1
100
AcDbLine
 10
5.592233
 20
6.832939
 30
0.0
 11
5.654322
 21
6.807892
 31
0.0
  0
LINE
  5
120
100
AcDbEntity
  8
Beam
 62
1
100
AcDbLine
 10
5.654322
 20
6.807892
 30
0.0
 11
5.654322
 21
6.785667
 31
0.0
  0
LINE
  5
121
100
AcDbEntity
  8
Beam
 62
1
100
AcDbLine
 10
5.654322
 20
6.785667
 30
0.0
 11
5.542139
 21
6.711231
 31
0.0
  0
LINE
  5
122
100
AcDbEntity
  8
Beam
 62
1
100
AcDbLine
 10
5.542139
 20
6.711231
 30
0.0
 11
5.417608
 21
6.661136
 31
0.0
  0
LINE
  5
123
100
AcDbEntity
  8
Beam
 62
1
100
AcDbLine
 10
5.417608
 20
6.661136
 30
0.0
 11
4.934303
 21
6.661136
 31
0.0
  0
LINE
  5
124
100
AcDbEntity
  8
Beam
 62
1
100
AcDbLine
 10
4.934303
 20
6.661136
 30
0.0
 11
4.812594
 21
6.711231
 31
0.0
  0
LINE
  5
125
100
AcDbEntity
  8
Beam
 62
1
100
AcDbLine
 10
4.812594
 20
6.711231
 30
0.0
 11
4.725458
 21
6.785667
 31
0.0
  0
LINE
  5
126
100
AcDbEntity
  8
Beam
 62
1
100
AcDbLine
 10
4.725458
 20
6.785667
 30
0.0
 11
4.712758
 21
6.807892
 31
0.0
  0
LINE
  5
127
100
AcDbEntity
  8
Beam
 62
1
100
AcDbLine
 10
4.712758
 20
6.807892
 30
0.0
 11
4.762853
 21
6.832939
 31
0.0
  0
LINE
  5
128
100
AcDbEntity
  8
Beam
 62
1
100
AcDbLine
 10
4.762853
 20
6.832939
 30
0.0
 11
4.787547
 21
6.907728
 31
0.0
  0
LINE
  5
129
100
AcDbEntity
  8
Beam
 62
1
100
AcDbLine
 10
4.787547
 20
6.907728
 30
0.0
 11
4.762853
 21
7.007211
 31
0.0
  0
LINE
  5
12a
100
AcDbEntity
  8
Beam
 62
1
100
AcDbLine
 10
4.762853
 20
7.007211
 30
0.0
 11
4.675364
 21
7.031906
 31
0.0
  0
LINE
  5
12b
100
AcDbEntity
  8
Beam
 62
1
100
AcDbLine
 10
4.675364
 20
7.031906
 30
0.0
 11
4.663017
 21
7.031906
 31
0.0
  0
LINE
  5
12c
100
AcDbEntity
  8
Beam
 62
1
100
AcDbLine
 10
4.663017
 20
7.031906
 30
0.0
 11
4.663017
 21
7.056953
 31
0.0
  0
LINE
  5
12d
100
AcDbEntity
  8
Beam
 62
1
100
AcDbLine
 10
4.663017
 20
7.056953
 30
0.0
 11
4.550833
 21
7.156436
 31
0.0
  0
LINE
  5
12e
100
AcDbEntity
  8
Beam
 62
1
100
AcDbLine
 10
4.550833
 20
7.156436
 30
0.0
 11
4.426303
 21
7.181483
 31
0.0
  0
LINE
  5
12f
100
AcDbEntity
  8
Beam
 62
1
100
AcDbLine
 10
4.426303
 20
7.181483
 30
0.0
 11
4.192058
 21
7.181483
 31
0.0
  0
LINE
  5
130
100
AcDbEntity
  8
Beam
 62
1
100
AcDbLine
 10
4.192058
 20
7.181483
 30
0.0
 11
2.096911
 21
8.987353
 31
0.0
  0
LINE
  5
131
100
AcDbEntity
  8
Beam
 62
1
100
AcDbLine
 10
2.096911
 20
8.987353
 30
0.0
 11
2.072217
 21
9.061789
 31
0.0
  0
LINE
  5
132
100
AcDbEntity
  8
Beam
 62
1
100
AcDbLine
 10
2.072217
 20
9.061789
 30
0.0
 11
2.096911
 21
9.136578
 31
0.0
  0
LINE
  5
133
100
AcDbEntity
  8
Beam
 62
1
100
AcDbLine
 10
2.096911
 20
9.136578
 30
0.0
 11
2.184047
 21
9.186320
 31
0.0
  0
LINE
  5
134
100
AcDbEntity
  8
Beam
 62
1
100
AcDbLine
 10
2.184047
 20
9.186320
 30
0.0
 11
3.434644
 21
9.186320
 31
0.0
  0
LINE
  5
135
100
AcDbEntity
  8
Beam
 62
1
100
AcDbLine
 10
3.434644
 20
9.186320
 30
0.0
 11
3.559175
 21
9.211014
 31
0.0
  0
LINE
  5
136
100
AcDbEntity
  8
Beam
 62
1
100
AcDbLine
 10
3.559175
 20
9.211014
 30
0.0
 11
3.646311
 21
9.308028
 31
0.0
  0
LINE
  5
137
100
AcDbEntity
  8
Beam
 62
1
100
AcDbLine
 10
3.646311
 20
9.308028
 30
0.0
 11
3.683706
 21
9.432558
 31
0.0
  0
LINE
  5
138
100
AcDbEntity
  8
Beam
 62
1
100
AcDbLine
 10
3.683706
 20
9.432558
 30
0.0
 11
3.683706
 21
9.927506
 31
0.0
  0
LINE
  5
139
100
AcDbEntity
  8
Beam
 62
1
100
AcDbLine
 10
3.683706
 20
9.927506
 30
0.0
 11
3.646311
 21
10.052036
 31
0.0
  0
LINE
  5
13a
100
AcDbEntity
  8
Beam
 62
1
100
AcDbLine
 10
3.646311
 20
10.052036
 30
0.0
 11
3.559175
 21
10.126472
 31
0.0
  0
LINE
  5
13b
100
AcDbEntity
  8
Beam
 62
1
100
AcDbLine
 10
3.559175
 20
10.126472
 30
0.0
 11
3.434644
 21
10.176214
 31
0.0
  0
LINE
  5
13c
100
AcDbEntity
  8
Beam
 62
1
100
AcDbLine
 10
3.434644
 20
10.176214
 30
0.0
 11
0.425450
 21
10.176214
 31
0.0
  0
LINE
  5
13d
100
AcDbEntity
  8
Beam
 62
1
100
AcDbLine
 10
0.425450
 20
10.176214
 30
0.0
 11
0.300919
 21
10.126472
 31
0.0
  0
LINE
  5
13e
100
AcDbEntity
  8
Beam
 62
1
100
AcDbLine
 10
0.300919
 20
10.126472
 30
0.0
 11
0.213783
 21
10.052036
 31
0.0
  0
LINE
  5
13f
100
AcDbEntity
  8
Beam
 62
1
100
AcDbLine
 10
0.213783
 20
10.052036
 30
0.0
 11
0.176389
 21
9.927506
 31
0.0
  0
LINE
  5
140
100
AcDbEntity
  8
Beam
 62
1
100
AcDbLine
 10
0.176389
 20
9.927506
 30
0.0
 11
0.176389
 21
6.907728
 31
0.0
  0
LINE
  5
141
100
AcDbEntity
  8
Beam
 62
1
100
AcDbLine
 10
0.176389
 20
6.907728
 30
0.0
 11
0.213783
 21
6.785667
 31
0.0
  0
LINE
  5
142
100
AcDbEntity
  8
Beam
 62
1
100
AcDbLine
 10
0.213783
 20
6.785667
 30
0.0
 11
0.300919
 21
6.711231
 31
0.0
  0
LINE
  5
143
100
AcDbEntity
  8
Beam
 62
1
100
AcDbLine
 10
0.300919
 20
6.711231
 30
0.0
 11
0.425450
 21
6.661136
 31
0.0
  0
LINE
  5
144
100
AcDbEntity
  8
Beam
 62
1
100
AcDbLine
 10
0.425450
 20
6.661136
 30
0.0
 11
0.921103
 21
6.661136
 31
0.0
  0
LINE
  5
145
100
AcDbEntity
  8
Beam
 62
1
100
AcDbLine
 10
0.921103
 20
6.661136
 30
0.0
 11
1.043164
 21
6.711231
 31
0.0
  0
LINE
  5
146
100
AcDbEntity
  8
Beam
 62
1
100
AcDbLine
 10
1.043164
 20
6.711231
 30
0.0
 11
1.142647
 21
6.785667
 31
0.0
  0
LINE
  5
147
100
AcDbEntity
  8
Beam
 62
1
100
AcDbLine
 10
1.142647
 20
6.785667
 30
0.0
 11
1.167694
 21
6.907728
 31
0.0
  0
LINE
  5
148
100
AcDbEntity
  8
Beam
 62
1
100
AcDbLine
 10
1.167694
 20
6.907728
 30
0.0
 11
1.167694
 21
8.171378
 31
0.0
  0
LINE
  5
149
100
AcDbEntity
  8
Beam
 62
1
100
AcDbLine
 10
1.167694
 20
8.171378
 30
0.0
 11
1.205089
 21
8.245814
 31
0.0
  0
LINE
  5
14a
100
AcDbEntity
  8
Beam
 62
1
100
AcDbLine
 10
1.205089
 20
8.245814
 30
0.0
 11
1.292225
 21
8.293086
 31
0.0
  0
LINE
  5
14b
100
AcDbEntity
  8
Beam
 62
1
100
AcDbLine
 10
1.292225
 20
8.293086
 30
0.0
 11
1.379361
 21
8.245814
 31
0.0
  0
LINE
  5
14c
100
AcDbEntity
  8
Beam
 62
1
100
AcDbLine
 10
1.379361
 20
8.245814
 30
0.0
 11
3.175706
 21
6.166542
 31
0.0
  0
LINE
  5
14d
100
AcDbEntity
  8
Beam
 62
1
100
AcDbLine
 10
3.175706
 20
6.166542
 30
0.0
 11
3.175706
 21
5.917481
 31
0.0
  0
LINE
  5
14e
100
AcDbEntity
  8
Beam
 62
1
100
AcDbLine
 10
3.175706
 20
5.917481
 30
0.0
 11
3.225447
 21
5.795772
 31
0.0
  0
LINE
  5
14f
100
AcDbEntity
  8
Beam
 62
1
100
AcDbLine
 10
3.225447
 20
5.795772
 30
0.0
 11
3.300236
 21
5.720983
 31
0.0
  0
LINE
  5
150
100
AcDbEntity
  8
Beam
 62
1
100
AcDbLine
 10
3.300236
 20
5.720983
 30
0.0
 11
3.337631
 21
5.696289
 31
0.0
  0
LINE
  5
151
100
AcDbEntity
  8
Beam
 62
1
100
AcDbLine
 10
3.337631
 20
5.696289
 30
0.0
 11
3.325283
 21
5.671242
 31
0.0
  0
LINE
  5
152
100
AcDbEntity
  8
Beam
 62
1
100
AcDbLine
 10
3.325283
 20
5.671242
 30
0.0
 11
3.349978
 21
5.596806
 31
0.0
  0
LINE
  5
153
100
AcDbEntity
  8
Beam
 62
1
100
AcDbLine
 10
3.349978
 20
5.596806
 30
0.0
 11
3.434644
 21
5.571758
 31
0.0
  0
LINE
  5
154
100
AcDbEntity
  8
Beam
 62
1
100
AcDbLine
 10
3.434644
 20
5.571758
 30
0.0
 11
3.509433
 21
5.596806
 31
0.0
  0
LINE
  5
155
100
AcDbEntity
  8
Beam
 62
1
100
AcDbLine
 10
3.509433
 20
5.596806
 30
0.0
 11
3.534481
 21
5.646547
 31
0.0
  0
LINE
  5
156
100
AcDbEntity
  8
Beam
 62
1
100
AcDbLine
 10
3.534481
 20
5.646547
 30
0.0
 11
3.559175
 21
5.621500
 31
0.0
  0
LINE
  5
157
100
AcDbEntity
  8
Beam
 62
1
100
AcDbLine
 10
3.559175
 20
5.621500
 30
0.0
 11
3.646311
 21
5.547064
 31
0.0
  0
LINE
  5
158
100
AcDbEntity
  8
Beam
 62
1
100
AcDbLine
 10
3.646311
 20
5.547064
 30
0.0
 11
3.683706
 21
5.422533
 31
0.0
  0
LINE
  5
159
100
AcDbEntity
  8
Beam
 62
1
100
AcDbLine
 10
3.683706
 20
5.422533
 30
0.0
 11
3.683706
 21
4.927586
 31
0.0
  0
LINE
  5
15a
100
AcDbEntity
  8
Beam
 62
1
100
AcDbLine
 10
3.683706
 20
4.927586
 30
0.0
 11
3.646311
 21
4.805525
 31
0.0
  0
LINE
  5
15b
100
AcDbEntity
  8
Beam
 62
1
100
AcDbLine
 10
3.646311
 20
4.805525
 30
0.0
 11
3.559175
 21
4.730736
 31
0.0
  0
LINE
  5
15c
100
AcDbEntity
  8
Beam
 62
1
100
AcDbLine
 10
3.559175
 20
4.730736
 30
0.0
 11
3.534481
 21
4.706042
 31
0.0
  0
LINE
  5
15d
100
AcDbEntity
  8
Beam
 62
1
100
AcDbLine
 10
3.534481
 20
4.706042
 30
0.0
 11
3.509433
 21
4.755783
 31
0.0
  0
LINE
  5
15e
100
AcDbEntity
  8
Beam
 62
1
100
AcDbLine
 10
3.509433
 20
4.755783
 30
0.0
 11
3.434644
 21
4.780831
 31
0.0
  0
LINE
  5
15f
100
AcDbEntity
  8
Beam
 62
1
100
AcDbLine
 10
3.434644
 20
4.780831
 30
0.0
 11
3.349978
 21
4.755783
 31
0.0
  0
LINE
  5
160
100
AcDbEntity
  8
Beam
 62
1
100
AcDbLine
 10
3.349978
 20
4.755783
 30
0.0
 11
3.325283
 21
4.681347
 31
0.0
  0
LINE
  5
161
100
AcDbEntity
  8
Beam
 62
1
100
AcDbLine
 10
3.325283
 20
4.681347
 30
0.0
 11
3.325283
 21
4.656300
 31
0.0
  0
LINE
  5
162
100
AcDbEntity
  8
Beam
 62
1
100
AcDbLine
 10
3.325283
 20
4.656300
 30
0.0
 11
3.300236
 21
4.656300
 31
0.0
  0
LINE
  5
163
100
AcDbEntity
  8
Beam
 62
1
100
AcDbLine
 10
3.300236
 20
4.656300
 30
0.0
 11
3.225447
 21
4.556817
 31
0.0
  0
LINE
  5
164
100
AcDbEntity
  8
Beam
 62
1
100
AcDbLine
 10
3.225447
 20
4.556817
 30
0.0
 11
3.175706
 21
4.432639
 31
0.0
  0
LINE
  5
165
100
AcDbEntity
  8
Beam
 62
1
100
AcDbLine
 10
3.175706
 20
4.432639
 30
0.0
 11
3.175706
 21
4.186047
 31
0.0
  0
LINE
  5
166
100
AcDbEntity
  8
Beam
 62
1
100
AcDbLine
 10
3.175706
 20
4.186047
 30
0.0
 11
1.379361
 21
2.106775
 31
0.0
  0
LINE
  5
167
100
AcDbEntity
  8
Beam
 62
1
100
AcDbLine
 10
1.379361
 20
2.106775
 30
0.0
 11
1.292225
 21
2.056681
 31
0.0
  0
LINE
  5
168
100
AcDbEntity
  8
Beam
 62
1
100
AcDbLine
 10
1.292225
 20
2.056681
 30
0.0
 11
1.205089
 21
2.106775
 31
0.0
  0
LINE
  5
169
100
AcDbEntity
  8
Beam
 62
1
100
AcDbLine
 10
1.205089
 20
2.106775
 30
0.0
 11
1.167694
 21
2.181564
 31
0.0
  0
LINE
  5
16a
100
AcDbEntity
  8
Beam
 62
1
100
AcDbLine
 10
1.167694
 20
2.181564
 30
0.0
 11
1.167694
 21
3.445214
 31
0.0
  0
LINE
  5
16b
100
AcDbEntity
  8
Beam
 62
1
100
AcDbLine
 10
1.167694
 20
3.445214
 30
0.0
 11
1.142647
 21
3.566922
 31
0.0
  0
LINE
  5
16c
100
AcDbEntity
  8
Beam
 62
1
100
AcDbLine
 10
1.142647
 20
3.566922
 30
0.0
 11
1.043164
 21
3.641358
 31
0.0
  0
LINE
  5
16d
100
AcDbEntity
  8
Beam
 62
1
100
AcDbLine
 10
1.043164
 20
3.641358
 30
0.0
 11
0.921103
 21
3.691100
 31
0.0
  0
LINE
  5
16e
100
AcDbEntity
  8
Beam
 62
1
100
AcDbLine
 10
0.921103
 20
3.691100
 30
0.0
 11
0.425450
 21
3.691100
 31
0.0
  0
LINE
  5
16f
100
AcDbEntity
  8
Beam
 62
1
100
AcDbLine
 10
0.425450
 20
3.691100
 30
0.0
 11
0.300919
 21
3.641358
 31
0.0
  0
LINE
  5
170
100
AcDbEntity
  8
Beam
 62
1
100
AcDbLine
 10
0.300919
 20
3.641358
 30
0.0
 11
0.213783
 21
3.566922
 31
0.0
  0
LINE
  5
171
100
AcDbEntity
  8
Beam
 62
1
100
AcDbLine
 10
0.213783
 20
3.566922
 30
0.0
 11
0.176389
 21
3.445214
 31
0.0
  0
LINE
  5
172
100
AcDbEntity
  8
Beam
 62
1
100
AcDbLine
 10
0.176389
 20
3.445214
 30
0.0
 11
0.176389
 21
0.425083
 31
0.0
  0
LINE
  5
173
100
AcDbEntity
  8
Beam
 62
1
100
AcDbLine
 10
0.176389
 20
0.425083
 30
0.0
 11
0.213783
 21
0.300553
 31
0.0
  0
LINE
  5
174
100
AcDbEntity
  8
Beam
 62
1
100
AcDbLine
 10
0.213783
 20
0.300553
 30
0.0
 11
0.300919
 21
0.226117
 31
0.0
  0
LINE
  5
175
100
AcDbEntity
  8
Beam
 62
1
100
AcDbLine
 10
0.300919
 20
0.226117
 30
0.0
 11
0.425450
 21
0.176375
 31
0.0
  0
LINE
  5
176
100
AcDbEntity
  8
Beam
 62
1
100
AcDbLine
 10
0.425450
 20
0.176375
 30
0.0
 11
3.434644
 21
0.176375
 31
0.0
  0
LINE
  5
177
100
AcDbEntity
  8
Beam
 62
1
100
AcDbLine
 10
3.434644
 20
0.176375
 30
0.0
 11
3.559175
 21
0.226117
 31
0.0
  0
LINE
  5
178
100
AcDbEntity
  8
Beam
 62
1
100
AcDbLine
 10
3.559175
 20
0.226117
 30
0.0
 11
3.646311
 21
0.300553
 31
0.0
  0
LINE
  5
179
100
AcDbEntity
  8
Beam
 62
1
100
AcDbLine
 10
3.646311
 20
0.300553
 30
0.0
 11
3.683706
 21
0.425083
 31
0.0
  0
LINE
  5
17a
100
AcDbEntity
  8
Beam
 62
1
100
AcDbLine
 10
3.683706
 20
0.425083
 30
0.0
 11
3.683706
 21
0.917914
 31
0.0
  0
LINE
  5
17b
100
AcDbEntity
  8
Beam
 62
1
100
AcDbLine
 10
3.683706
 20
0.917914
 30
0.0
 11
3.646311
 21
1.041739
 31
0.0
  0
LINE
  5
17c
100
AcDbEntity
  8
Beam
 62
1
100
AcDbLine
 10
3.646311
 20
1.041739
 30
0.0
 11
3.559175
 21
1.141222
 31
0.0
  0
LINE
  5
17d
100
AcDbEntity
  8
Beam
 62
1
100
AcDbLine
 10
3.559175
 20
1.141222
 30
0.0
 11
3.434644
 21
1.166622
 31
0.0
  0
LINE
  5
17e
100
AcDbEntity
  8
Beam
 62
1
100
AcDbLine
 10
3.434644
 20
1.166622
 30
0.0
 11
2.184047
 21
1.166622
 31
0.0
  0
LINE
  5
17f
100
AcDbEntity
  8
Beam
 62
1
100
AcDbLine
 10
2.184047
 20
1.166622
 30
0.0
 11
2.096911
 21
1.216011
 31
0.0
  0
LINE
  5
180
100
AcDbEntity
  8
Beam
 62
1
100
AcDbLine
 10
2.096911
 20
1.216011
 30
0.0
 11
2.072217
 21
1.290447
 31
0.0
  0
LINE
  5
181
100
AcDbEntity
  8
Beam
 62
1
100
AcDbLine
 10
2.072217
 20
1.290447
 30
0.0
 11
2.096911
 21
1.390283
 31
0.0
  0
LINE
  5
182
100
AcDbEntity
  8
Beam
 62
1
100
AcDbLine
 10
2.096911
 20
1.390283
 30
0.0
 11
4.192058
 21
3.171106
 31
0.0
  0
LINE
  5
183
100
AcDbEntity
  8
Beam
 62
1
100
AcDbLine
 10
4.192058
 20
3.171106
 30
0.0
 11
4.426303
 21
3.171106
 31
0.0
  0
LINE
  5
184
100
AcDbEntity
  8
Beam
 62
1
100
AcDbLine
 10
4.426303
 20
3.171106
 30
0.0
 11
4.550833
 21
3.196506
 31
0.0
  0
LINE
  5
185
100
AcDbEntity
  8
Beam
 62
1
100
AcDbLine
 10
4.550833
 20
3.196506
 30
0.0
 11
4.663017
 21
3.295636
 31
0.0
  0
LINE
  5
186
100
AcDbEntity
  8
Beam
 62
1
100
AcDbLine
 10
4.663017
 20
3.295636
 30
0.0
 11
4.663017
 21
3.345378
 31
0.0
  0
LINE
  5
187
100
AcDbEntity
  8
Beam
 62
1
100
AcDbLine
 10
4.663017
 20
3.345378
 30
0.0
 11
4.675364
 21
3.320331
 31
0.0
  0
LINE
  5
188
100
AcDbEntity
  8
Beam
 62
1
100
AcDbLine
 10
4.675364
 20
3.320331
 30
0.0
 11
4.762853
 21
3.345378
 31
0.0
  0
LINE
  5
189
100
AcDbEntity
  8
Beam
 62
1
100
AcDbLine
 10
4.762853
 20
3.345378
 30
0.0
 11
4.787547
 21
3.445214
 31
0.0
  0
LINE
  5
18a
100
AcDbEntity
  8
Beam
 62
1
100
AcDbLine
 10
4.787547
 20
3.445214
 30
0.0
 11
4.762853
 21
3.517181
 31
0.0
  0
LINE
  5
18b
100
AcDbEntity
  8
Beam
 62
1
100
AcDbLine
 10
4.762853
 20
3.517181
 30
0.0
 11
4.712758
 21
3.541875
 31
0.0
  0
LINE
  5
18c
100
AcDbEntity
  8
Beam
 62
1
100
AcDbLine
 10
4.712758
 20
3.541875
 30
0.0
 11
4.725458
 21
3.566922
 31
0.0
  0
LINE
  5
18d
100
AcDbEntity
  8
Beam
 62
1
100
AcDbLine
 10
4.725458
 20
3.566922
 30
0.0
 11
4.812594
 21
3.641358
 31
0.0
  0
LINE
  5
18e
100
AcDbEntity
  8
Beam
 62
1
100
AcDbLine
 10
4.812594
 20
3.641358
 30
0.0
 11
4.934303
 21
3.691100
 31
0.0
  0
LINE
  5
18f
100
AcDbEntity
  8
Beam
 62
1
100
AcDbLine
 10
4.934303
 20
3.691100
 30
0.0
 11
5.417608
 21
3.691100
 31
0.0
  0
LINE
  5
190
100
AcDbEntity
  8
Beam
 62
1
100
AcDbLine
 10
5.417608
 20
3.691100
 30
0.0
 11
5.542139
 21
3.641358
 31
0.0
  0
LINE
  5
191
100
AcDbEntity
  8
Beam
 62
1
100
AcDbLine
 10
5.542139
 20
3.641358
 30
0.0
 11
5.654322
 21
3.566922
 31
0.0
  0
LINE
  5
192
100
AcDbEntity
  8
Beam
 62
1
100
AcDbLine
 10
5.654322
 20
3.566922
 30
0.0
 11
5.654322
 21
3.541875
 31
0.0
  0
LINE
  5
193
100
AcDbEntity
  8
Beam
 62
1
100
AcDbLine
 10
5.654322
 20
3.541875
 30
0.0
 11
5.592233
 21
3.517181
 31
0.0
  0
LINE
  5
194
100
AcDbEntity
  8
Beam
 62
1
100
AcDbLine
 10
5.592233
 20
3.517181
 30
0.0
 11
5.567539
 21
3.445214
 31
0.0
  0
LINE
  5
195
100
AcDbEntity
  8
Beam
 62
1
100
AcDbLine
 10
5.567539
 20
3.445214
 30
0.0
 11
5.592233
 21
3.345378
 31
0.0
  0
LINE
  5
196
100
AcDbEntity
  8
Beam
 62
1
100
AcDbLine
 10
5.592233
 20
3.345378
 30
0.0
 11
5.679369
 21
3.320331
 31
0.0
  0
LINE
  5
197
100
AcDbEntity
  8
Beam
 62
1
100
AcDbLine
 10
5.679369
 20
3.320331
 30
0.0
 11
5.704064
 21
3.345378
 31
0.0
  0
LINE
  5
198
100
AcDbEntity
  8
Beam
 62
1
100
AcDbLine
 10
5.704064
 20
3.345378
 30
0.0
 11
5.717117
 21
3.295636
 31
0.0
  0
LINE
  5
199
100
AcDbEntity
  8
Beam
 62
1
100
AcDbLine
 10
5.717117
 20
3.295636
 30
0.0
 11
5.801431
 21
3.196506
 31
0.0
  0
LINE
  5
19a
100
AcDbEntity
  8
Beam
 62
1
100
AcDbLine
 10
5.801431
 20
3.196506
 30
0.0
 11
5.925961
 21
3.171106
 31
0.0
  0
LINE
  5
19b
100
AcDbEntity
  8
Beam
 62
1
100
AcDbLine
 10
5.925961
 20
3.171106
 30
0.0
 11
6.185253
 21
3.171106
 31
0.0
  0
LINE
  5
19c
100
AcDbEntity
  8
Beam
 62
1
100
AcDbLine
 10
6.185253
 20
3.171106
 30
0.0
 11
8.258175
 21
1.390283
 31
0.0
  0
LINE
  5
19d
100
AcDbEntity
  8
Beam
 62
1
100
AcDbLine
 10
8.258175
 20
1.390283
 30
0.0
 11
8.292394
 21
1.290447
 31
0.0
  0
LINE
  5
19e
100
AcDbEntity
  8
Beam
 62
1
100
AcDbLine
 10
8.292394
 20
1.290447
 30
0.0
 11
8.258175
 21
1.216011
 31
0.0
  0
LINE
  5
19f
100
AcDbEntity
  8
Beam
 62
1
100
AcDbLine
 10
8.258175
 20
1.216011
 30
0.0
 11
8.168217
 21
1.166622
 31
0.0
  0
LINE
  5
1a0
100
AcDbEntity
  8
Beam
 62
1
100
AcDbLine
 10
8.168217
 20
1.166622
 30
0.0
 11
6.942314
 21
1.166622
 31
0.0
  0
LINE
  5
1a1
100
AcDbEntity
  8
Beam
 62
1
100
AcDbLine
 10
6.942314
 20
1.166622
 30
0.0
 11
6.818136
 21
1.141222
 31
0.0
  0
LINE
  5
1a2
100
AcDbEntity
  8
Beam
 62
1
100
AcDbLine
 10
6.818136
 20
1.141222
 30
0.0
 11
6.708422
 21
1.041739
 31
0.0
  0
LINE
  5
1a3
100
AcDbEntity
  8
Beam
 62
1
100
AcDbLine
 10
6.708422
 20
1.041739
 30
0.0
 11
6.683375
 21
0.917914
 31
0.0
  0
LINE
  5
1a4
100
AcDbEntity
  8
Beam
 62
1
100
AcDbLine
 10
6.683375
 20
0.917914
 30
0.0
 11
6.683375
 21
0.425083
 31
0.0
  0
LINE
  5
1a5
100
AcDbEntity
  8
Beam
 62
1
100
AcDbLine
 10
6.683375
 20
0.425083
 30
0.0
 11
6.708422
 21
0.300553
 31
0.0
  0
LINE
  5
1a6
100
AcDbEntity
  8
Beam
 62
1
100
AcDbLine
 10
6.708422
 20
0.300553
 30
0.0
 11
6.818136
 21
0.226117
 31
0.0
  0
LINE
  5
1a7
100
AcDbEntity
  8
Beam
 62
1
100
AcDbLine
 10
6.818136
 20
0.226117
 30
0.0
 11
6.942314
 21
0.176375
 31
0.0
  0
LINE
  5
1a8
100
AcDbEntity
  8
Beam
 62
1
100
AcDbLine
 10
6.942314
 20
0.176375
 30
0.0
 11
9.926814
 21
0.176375
 31
0.0
  0
LINE
  5
1a9
100
AcDbEntity
  8
Beam
 62
1
100
AcDbLine
 10
9.926814
 20
0.176375
 30
0.0
 11
10.051697
 21
0.226117
 31
0.0
  0
LINE
  5
1aa
100
AcDbEntity
  8
Beam
 62
1
100
AcDbLine
 10
10.051697
 20
0.226117
 30
0.0
 11
10.151181
 21
0.300553
 31
0.0
  0
LINE
  5
1ab
100
AcDbEntity
  8
Beam
 62
1
100
AcDbLine
 10
10.151181
 20
0.300553
 30
0.0
 11
10.176228
 21
0.425083
 31
0.0
  0
LINE
  5
1ac
100
AcDbEntity
  8
Beam
 62
1
100
AcDbLine
 10
10.176228
 20
0.425083
 30
0.0
 11
10.176228
 21
3.445214
 31
0.0
  0
LINE
  5
1ad
100
AcDbEntity
  8
Beam
 62
1
100
AcDbLine
 10
10.176228
 20
3.445214
 30
0.0
 11
10.151181
 21
3.566922
 31
0.0
  0
LINE
  5
1ae
100
AcDbEntity
  8
Beam
 62
1
100
AcDbLine
 10
10.151181
 20
3.566922
 30
0.0
 11
10.051697
 21
3.641358
 31
0.0
  0
LINE
  5
1af
100
AcDbEntity
  8
Beam
 62
1
100
AcDbLine
 10
10.051697
 20
3.641358
 30
0.0
 11
9.926814
 21
3.691100
 31
0.0
  0
LINE
  5
1b0
100
AcDbEntity
  8
Beam
 62
1
100
AcDbLine
 10
9.926814
 20
3.691100
 30
0.0
 11
9.433631
 21
3.691100
 31
0.0
  0
LINE
  5
1b1
100
AcDbEntity
  8
Beam
 62
1
100
AcDbLine
 10
9.433631
 20
3.691100
 30
0.0
 11
9.309100
 21
3.641358
 31
0.0
  0
LINE
  5
1b2
100
AcDbEntity
  8
Beam
 62
1
100
AcDbLine
 10
9.309100
 20
3.641358
 30
0.0
 11
9.224433
 21
3.566922
 31
0.0
  0
LINE
  5
1b3
100
AcDbEntity
  8
Beam
 62
1
100
AcDbLine
 10
9.224433
 20
3.566922
 30
0.0
 11
9.184922
 21
3.445214
 31
0.0
  0
LINE
  5
1b4
100
AcDbEntity
  8
Beam
 62
1
100
AcDbLine
 10
9.184922
 20
3.445214
 30
0.0
 11
9.184922
 21
2.181564
 31
0.0
  0
LINE
  5
1b5
100
AcDbEntity
  8
Beam
 62
1
100
AcDbLine
 10
9.184922
 20
2.181564
 30
0.0
 11
9.159522
 21
2.106775
 31
0.0
  0
LINE
  5
1b6
100
AcDbEntity
  8
Beam
 62
1
100
AcDbLine
 10
9.159522
 20
2.106775
 30
0.0
 11
9.075208
 21
2.056681
 31
0.0
  0
LINE
  5
1b7
100
AcDbEntity
  8
Beam
 62
1
100
AcDbLine
 10
9.075208
 20
2.056681
 30
0.0
 11
9.000067
 21
2.106775
 31
0.0
  0
LINE
  5
1b8
100
AcDbEntity
  8
Beam
 62
1
100
AcDbLine
 10
9.000067
 20
2.106775
 30
0.0
 11
7.191375
 21
4.186047
 31
0.0
  0
LINE
  5
1b9
100
AcDbEntity
  8
Beam
 62
1
100
AcDbLine
 10
7.191375
 20
4.186047
 30
0.0
 11
7.191375
 21
4.432639
 31
0.0
  0
LINE
  5
1ba
100
AcDbEntity
  8
Beam
 62
1
100
AcDbLine
 10
7.191375
 20
4.432639
 30
0.0
 11
7.151511
 21
4.556817
 31
0.0
  0
LINE
  5
1bb
100
AcDbEntity
  8
Beam
 62
1
100
AcDbLine
 10
7.151511
 20
4.556817
 30
0.0
 11
7.067197
 21
4.656300
 31
0.0
  0
LINE
  5
1bc
100
AcDbEntity
  8
Beam
 62
1
100
AcDbLine
 10
7.067197
 20
4.656300
 30
0.0
 11
7.041797
 21
4.656300
 31
0.0
  0
LINE
  5
1bd
100
AcDbEntity
  8
Beam
 62
1
100
AcDbLine
 10
7.041797
 20
4.656300
 30
0.0
 11
7.041797
 21
4.681347
 31
0.0
  0
LINE
  5
1be
100
AcDbEntity
  8
Beam
 62
1
100
AcDbLine
 10
7.041797
 20
4.681347
 30
0.0
 11
7.026981
 21
4.755783
 31
0.0
  0
LINE
  5
1bf
100
AcDbEntity
  8
Beam
 62
1
100
AcDbLine
 10
7.026981
 20
4.755783
 30
0.0
 11
6.942314
 21
4.780831
 31
0.0
  0
LINE
  5
1c0
100
AcDbEntity
  8
Beam
 62
1
100
AcDbLine
 10
6.942314
 20
4.780831
 30
0.0
 11
6.858000
 21
4.755783
 31
0.0
  0
LINE
  5
1c1
100
AcDbEntity
  8
Beam
 62
1
100
AcDbLine
 10
6.858000
 20
4.755783
 30
0.0
 11
6.842831
 21
4.706042
 31
0.0
  0
LINE
  5
1c2
100
AcDbEntity
  8
Beam
 62
1
100
AcDbLine
 10
6.842831
 20
4.706042
 30
0.0
 11
6.818136
 21
4.730736
 31
0.0
  0
LINE
  5
1c3
100
AcDbEntity
  8
Beam
 62
1
100
AcDbLine
 10
6.818136
 20
4.730736
 30
0.0
 11
6.708422
 21
4.805525
 31
0.0
  0
LINE
  5
1c4
100
AcDbEntity
  8
Beam
 62
1
100
AcDbLine
 10
6.708422
 20
4.805525
 30
0.0
 11
6.683375
 21
4.927586
 31
0.0
  0
LINE
  5
1c5
100
AcDbEntity
  8
Beam
 62
1
100
AcDbLine
 10
6.683375
 20
4.927586
 30
0.0
 11
6.683375
 21
5.422533
 31
0.0
  0
LINE
  5
1c6
100
AcDbEntity
  8
Beam
 62
1
100
AcDbLine
 10
6.683375
 20
5.422533
 30
0.0
 11
6.708422
 21
5.547064
 31
0.0
  0
LINE
  5
1c7
100
AcDbEntity
  8
Beam
 62
1
100
AcDbLine
 10
6.708422
 20
5.547064
 30
0.0
 11
6.818136
 21
5.621500
 31
0.0
  0
LINE
  5
1c8
100
AcDbEntity
  8
Beam
 62
1
100
AcDbLine
 10
6.818136
 20
5.621500
 30
0.0
 11
6.842831
 21
5.646547
 31
0.0
  0
LINE
  5
1c9
100
AcDbEntity
  8
Beam
 62
1
100
AcDbLine
 10
6.842831
 20
5.646547
 30
0.0
 11
6.858000
 21
5.596806
 31
0.0
  0
LINE
  5
1ca
100
AcDbEntity
  8
Beam
 62
1
100
AcDbLine
 10
6.858000
 20
5.596806
 30
0.0
 11
6.942314
 21
5.571758
 31
0.0
  0
LINE
  5
1cb
100
AcDbEntity
  8
Beam
 62
1
100
AcDbLine
 10
6.942314
 20
5.571758
 30
0.0
 11
7.026981
 21
5.596806
 31
0.0
  0
LINE
  5
1cc
100
AcDbEntity
  8
Beam
 62
1
100
AcDbLine
 10
7.026981
 20
5.596806
 30
0.0
 11
7.041797
 21
5.671242
 31
0.0
  0
LINE
  5
1cd
100
AcDbEntity
  8
Beam
 62
1
100
AcDbLine
 10
7.041797
 20
5.671242
 30
0.0
 11
7.041797
 21
5.696289
 31
0.0
  0
LINE
  5
1ce
100
AcDbEntity
  8
Beam
 62
1
100
AcDbLine
 10
7.041797
 20
5.696289
 30
0.0
 11
7.067197
 21
5.720983
 31
0.0
  0
LINE
  5
1cf
100
AcDbEntity
  8
Beam
 62
1
100
AcDbLine
 10
7.067197
 20
5.720983
 30
0.0
 11
7.151511
 21
5.795772
 31
0.0
  0
LINE
  5
1d0
100
AcDbEntity
  8
Beam
 62
1
100
AcDbLine
 10
7.151511
 20
5.795772
 30
0.0
 11
7.191375
 21
5.917481
 31
0.0
  0
LINE
  5
1d1
100
AcDbEntity
  8
Beam
 62
1
100
AcDbLine
 10
7.191375
 20
5.917481
 30
0.0
 11
7.191375
 21
6.166542
 31
0.0
  0
LINE
  5
1d2
100
AcDbEntity
  8
Beam
 62
1
100
AcDbLine
 10
7.191375
 20
6.166542
 30
0.0
 11
9.000067
 21
8.245814
 31
0.0
  0
LINE
  5
1d3
100
AcDbEntity
  8
Beam
 62
1
100
AcDbLine
 10
9.000067
 20
8.245814
 30
0.0
 11
9.075208
 21
8.293086
 31
0.0
  0
LINE
  5
1d4
100
AcDbEntity
  8
Beam
 62
1
100
AcDbLine
 10
9.075208
 20
8.293086
 30
0.0
 11
9.159522
 21
8.245814
 31
0.0
  0
LINE
  5
1d5
100
AcDbEntity
  8
Beam
 62
1
100
AcDbLine
 10
9.159522
 20
8.245814
 30
0.0
 11
9.184922
 21
8.171378
 31
0.0
  0
LINE
  5
1d6
100
AcDbEntity
  8
Beam
 62
1
100
AcDbLine
 10
9.184922
 20
8.171378
 30
0.0
 11
9.184922
 21
6.907728
 31
0.0
  0
LINE
  5
1d7
100
AcDbEntity
  8
Beam
 62
1
100
AcDbLine
 10
9.184922
 20
6.907728
 30
0.0
 11
9.224433
 21
6.785667
 31
0.0
  0
ENDSEC
  0
SECTION
  2
OBJECTS
  0
DICTIONARY
  5
C
330
0
100
AcDbDictionary
  3
ACAD_GROUP
350
D
  3
ACAD_MLINESTYLE
350
17
  0
DICTIONARY
  5
D
330
C
100
AcDbDictionary
  0
DICTIONARY
  5
1A
330
C
100
AcDbDictionary
  0
DICTIONARY
  5
17
330
C
100
AcDbDictionary
  3
STANDARD
350
18
  0
DICTIONARY
  5
19
330
C
100
AcDbDictionary
  0
ENDSEC
  0
EOF
