<?xml version="1.0" standalone="no"?>
<!DOCTYPE svg PUBLIC "-//W3C//DTD SVG 1.1//EN" "http://www.w3.org/Graphics/SVG/1.1/DTD/svg11.dtd">
<svg width="380" height="380" viewBox="-50 -190 380 380" xmlns="http://www.w3.org/2000/svg" version="1.1">
<title>OpenSCAD Model</title>
<path d="
M 321.951,189.808 L 323.827,189.239 L 325.556,188.315 L 327.071,187.071 L 328.315,185.556 L 329.239,183.827
 L 329.808,181.951 L 330,180 L 330,-180 L 329.808,-181.951 L 329.239,-183.827 L 328.315,-185.556
 L 327.071,-187.071 L 325.556,-188.315 L 323.827,-189.239 L 321.951,-189.808 L 320,-190 L -40,-190
 L -41.9509,-189.808 L -43.8268,-189.239 L -45.5557,-188.315 L -47.0711,-187.071 L -48.3147,-185.556 L -49.2388,-183.827
 L -49.8078,-181.951 L -50,-180 L -50,180 L -49.8078,181.951 L -49.2388,183.827 L -48.3147,185.556
 L -47.0711,187.071 L -45.5557,188.315 L -43.8268,189.239 L -41.9509,189.808 L -40,190 L 320,190
 z
M 35.2346,-158.152 L 34.5858,-158.586 L 34.1522,-159.235 L 34,-160 L 34.1522,-160.765 L 34.5858,-161.414
 L 35.2346,-161.848 L 36,-162 L 36.7654,-161.848 L 37.4142,-161.414 L 37.8477,-160.765 L 38,-160
 L 37.8477,-159.235 L 37.4142,-158.586 L 36.7654,-158.152 L 36,-158 z
M 17.2346,-158.152 L 16.5858,-158.586 L 16.1522,-159.235 L 16,-160 L 16.1522,-160.765 L 16.5858,-161.414
 L 17.2346,-161.848 L 18,-162 L 18.7654,-161.848 L 19.4142,-161.414 L 19.8477,-160.765 L 20,-160
 L 19.8477,-159.235 L 19.4142,-158.586 L 18.7654,-158.152 L 18,-158 z
M 284.235,-158.152 L 283.586,-158.586 L 283.152,-159.235 L 283,-160 L 283.152,-160.765 L 283.586,-161.414
 L 284.235,-161.848 L 285,-162 L 285.765,-161.848 L 286.414,-161.414 L 286.848,-160.765 L 287,-160
 L 286.848,-159.235 L 286.414,-158.586 L 285.765,-158.152 L 285,-158 z
M 302.235,-158.152 L 301.586,-158.586 L 301.152,-159.235 L 301,-160 L 301.152,-160.765 L 301.586,-161.414
 L 302.235,-161.848 L 303,-162 L 303.765,-161.848 L 304.414,-161.414 L 304.848,-160.765 L 305,-160
 L 304.848,-159.235 L 304.414,-158.586 L 303.765,-158.152 L 303,-158 z
M -12.7654,-146.152 L -13.4142,-146.586 L -13.8477,-147.235 L -14,-148 L -13.8477,-148.765 L -13.4142,-149.414
 L -12.7654,-149.848 L -12,-150 L -11.2346,-149.848 L -10.5858,-149.414 L -10.1522,-148.765 L -10,-148
 L -10.1522,-147.235 L -10.5858,-146.586 L -11.2346,-146.152 L -12,-146 z
M -32.7654,-141.152 L -33.4142,-141.586 L -33.8477,-142.235 L -34,-143 L -33.8477,-143.765 L -33.4142,-144.414
 L -32.7654,-144.848 L -32,-145 L -31.2346,-144.848 L -30.5858,-144.414 L -30.1522,-143.765 L -30,-143
 L -30.1522,-142.235 L -30.5858,-141.586 L -31.2346,-141.152 L -32,-141 z
M 62.8519,-135.228 L 61.8787,-135.879 L 61.2284,-136.852 L 61,-138 L 61.2284,-139.148 L 61.8787,-140.121
 L 62.8519,-140.772 L 64,-141 L 65.148,-140.772 L 66.1213,-140.121 L 66.7716,-139.148 L 67,-138
 L 66.7716,-136.852 L 66.1213,-135.879 L 65.148,-135.228 L 64,-135 z
M 259.852,-135.228 L 258.879,-135.879 L 258.228,-136.852 L 258,-138 L 258.228,-139.148 L 258.879,-140.121
 L 259.852,-140.772 L 261,-141 L 262.148,-140.772 L 263.121,-140.121 L 263.772,-139.148 L 264,-138
 L 263.772,-136.852 L 263.121,-135.879 L 262.148,-135.228 L 261,-135 z
M 49.8519,-135.228 L 48.8787,-135.879 L 48.2284,-136.852 L 48,-138 L 48.2284,-139.148 L 48.8787,-140.121
 L 49.8519,-140.772 L 51,-141 L 52.148,-140.772 L 53.1213,-140.121 L 53.7716,-139.148 L 54,-138
 L 53.7716,-136.852 L 53.1213,-135.879 L 52.148,-135.228 L 51,-135 z
M 62.8519,-89.2284 L 61.8787,-89.8787 L 61.2284,-90.8519 L 61,-92 L 61.2284,-93.148 L 61.8787,-94.1213
 L 62.8519,-94.7716 L 64,-95 L 65.148,-94.7716 L 66.1213,-94.1213 L 66.7716,-93.148 L 67,-92
 L 66.7716,-90.8519 L 66.1213,-89.8787 L 65.148,-89.2284 L 64,-89 z
M 49.8519,-89.2284 L 48.8787,-89.8787 L 48.2284,-90.8519 L 48,-92 L 48.2284,-93.148 L 48.8787,-94.1213
 L 49.8519,-94.7716 L 51,-95 L 52.148,-94.7716 L 53.1213,-94.1213 L 53.7716,-93.148 L 54,-92
 L 53.7716,-90.8519 L 53.1213,-89.8787 L 52.148,-89.2284 L 51,-89 z
M 259.852,-89.2284 L 258.879,-89.8787 L 258.228,-90.8519 L 258,-92 L 258.228,-93.148 L 258.879,-94.1213
 L 259.852,-94.7716 L 261,-95 L 262.148,-94.7716 L 263.121,-94.1213 L 263.772,-93.148 L 264,-92
 L 263.772,-90.8519 L 263.121,-89.8787 L 262.148,-89.2284 L 261,-89 z
M -32.7654,-85.1522 L -33.4142,-85.5858 L -33.8477,-86.2346 L -34,-87 L -33.8477,-87.7654 L -33.4142,-88.4142
 L -32.7654,-88.8477 L -32,-89 L -31.2346,-88.8477 L -30.5858,-88.4142 L -30.1522,-87.7654 L -30,-87
 L -30.1522,-86.2346 L -30.5858,-85.5858 L -31.2346,-85.1522 L -32,-85 z
M -12.7654,-80.1522 L -13.4142,-80.5858 L -13.8477,-81.2346 L -14,-82 L -13.8477,-82.7654 L -13.4142,-83.4142
 L -12.7654,-83.8477 L -12,-84 L -11.2346,-83.8477 L -10.5858,-83.4142 L -10.1522,-82.7654 L -10,-82
 L -10.1522,-81.2346 L -10.5858,-80.5858 L -11.2346,-80.1522 L -12,-80 z
M 60,80 L 58.0491,79.8078 L 56.1732,79.2388 L 54.4443,78.3147 L 52.9289,77.0711 L 51.6853,75.5557
 L 50.7612,73.8268 L 50.1921,71.9509 L 50,70 L 50,-70 L 50.1921,-71.9509 L 50.7612,-73.8268
 L 51.6853,-75.5557 L 52.9289,-77.0711 L 54.4443,-78.3147 L 56.1732,-79.2388 L 58.0491,-79.8078 L 60,-80
 L 240,-80 L 241.951,-79.8078 L 243.827,-79.2388 L 245.556,-78.3147 L 247.071,-77.0711 L 248.315,-75.5557
 L 249.239,-73.8268 L 249.808,-71.9509 L 250,-70 L 250,70 L 249.808,71.9509 L 249.239,73.8268
 L 248.315,75.5557 L 247.071,77.0711 L 245.556,78.3147 L 243.827,79.2388 L 241.951,79.8078 L 240,80
 z
M -12.7654,83.8477 L -13.4142,83.4142 L -13.8477,82.7654 L -14,82 L -13.8477,81.2346 L -13.4142,80.5858
 L -12.7654,80.1522 L -12,80 L -11.2346,80.1522 L -10.5858,80.5858 L -10.1522,81.2346 L -10,82
 L -10.1522,82.7654 L -10.5858,83.4142 L -11.2346,83.8477 L -12,84 z
M -32.7654,88.8477 L -33.4142,88.4142 L -33.8477,87.7654 L -34,87 L -33.8477,86.2346 L -33.4142,85.5858
 L -32.7654,85.1522 L -32,85 L -31.2346,85.1522 L -30.5858,85.5858 L -30.1522,86.2346 L -30,87
 L -30.1522,87.7654 L -30.5858,88.4142 L -31.2346,88.8477 L -32,89 z
M 259.852,94.7716 L 258.879,94.1213 L 258.228,93.148 L 258,92 L 258.228,90.8519 L 258.879,89.8787
 L 259.852,89.2284 L 261,89 L 262.148,89.2284 L 263.121,89.8787 L 263.772,90.8519 L 264,92
 L 263.772,93.148 L 263.121,94.1213 L 262.148,94.7716 L 261,95 z
M 49.8519,94.7716 L 48.8787,94.1213 L 48.2284,93.148 L 48,92 L 48.2284,90.8519 L 48.8787,89.8787
 L 49.8519,89.2284 L 51,89 L 52.148,89.2284 L 53.1213,89.8787 L 53.7716,90.8519 L 54,92
 L 53.7716,93.148 L 53.1213,94.1213 L 52.148,94.7716 L 51,95 z
M 62.8519,94.7716 L 61.8787,94.1213 L 61.2284,93.148 L 61,92 L 61.2284,90.8519 L 61.8787,89.8787
 L 62.8519,89.2284 L 64,89 L 65.148,89.2284 L 66.1213,89.8787 L 66.7716,90.8519 L 67,92
 L 66.7716,93.148 L 66.1213,94.1213 L 65.148,94.7716 L 64,95 z
M 49.8519,140.772 L 48.8787,140.121 L 48.2284,139.148 L 48,138 L 48.2284,136.852 L 48.8787,135.879
 L 49.8519,135.228 L 51,135 L 52.148,135.228 L 53.1213,135.879 L 53.7716,136.852 L 54,138
 L 53.7716,139.148 L 53.1213,140.121 L 52.148,140.772 L 51,141 z
M 62.8519,140.772 L 61.8787,140.121 L 61.2284,139.148 L 61,138 L 61.2284,136.852 L 61.8787,135.879
 L 62.8519,135.228 L 64,135 L 65.148,135.228 L 66.1213,135.879 L 66.7716,136.852 L 67,138
 L 66.7716,139.148 L 66.1213,140.121 L 65.148,140.772 L 64,141 z
M 259.852,140.772 L 258.879,140.121 L 258.228,139.148 L 258,138 L 258.228,136.852 L 258.879,135.879
 L 259.852,135.228 L 261,135 L 262.148,135.228 L 263.121,135.879 L 263.772,136.852 L 264,138
 L 263.772,139.148 L 263.121,140.121 L 262.148,140.772 L 261,141 z
M -32.7654,144.848 L -33.4142,144.414 L -33.8477,143.765 L -34,143 L -33.8477,142.235 L -33.4142,141.586
 L -32.7654,141.152 L -32,141 L -31.2346,141.152 L -30.5858,141.586 L -30.1522,142.235 L -30,143
 L -30.1522,143.765 L -30.5858,144.414 L -31.2346,144.848 L -32,145 z
M -12.7654,149.848 L -13.4142,149.414 L -13.8477,148.765 L -14,148 L -13.8477,147.235 L -13.4142,146.586
 L -12.7654,146.152 L -12,146 L -11.2346,146.152 L -10.5858,146.586 L -10.1522,147.235 L -10,148
 L -10.1522,148.765 L -10.5858,149.414 L -11.2346,149.848 L -12,150 z
M 17.2346,161.848 L 16.5858,161.414 L 16.1522,160.765 L 16,160 L 16.1522,159.235 L 16.5858,158.586
 L 17.2346,158.152 L 18,158 L 18.7654,158.152 L 19.4142,158.586 L 19.8477,159.235 L 20,160
 L 19.8477,160.765 L 19.4142,161.414 L 18.7654,161.848 L 18,162 z
M 35.2346,161.848 L 34.5858,161.414 L 34.1522,160.765 L 34,160 L 34.1522,159.235 L 34.5858,158.586
 L 35.2346,158.152 L 36,158 L 36.7654,158.152 L 37.4142,158.586 L 37.8477,159.235 L 38,160
 L 37.8477,160.765 L 37.4142,161.414 L 36.7654,161.848 L 36,162 z
M 302.235,161.848 L 301.586,161.414 L 301.152,160.765 L 301,160 L 301.152,159.235 L 301.586,158.586
 L 302.235,158.152 L 303,158 L 303.765,158.152 L 304.414,158.586 L 304.848,159.235 L 305,160
 L 304.848,160.765 L 304.414,161.414 L 303.765,161.848 L 303,162 z
M 284.235,161.848 L 283.586,161.414 L 283.152,160.765 L 283,160 L 283.152,159.235 L 283.586,158.586
 L 284.235,158.152 L 285,158 L 285.765,158.152 L 286.414,158.586 L 286.848,159.235 L 287,160
 L 286.848,160.765 L 286.414,161.414 L 285.765,161.848 L 285,162 z
" stroke="black" fill="lightgray" stroke-width="0.5"/></svg>
