<?xml version="1.0" encoding="UTF-8" standalone="no"?>
<!-- Created with Inkscape (http://www.inkscape.org/) -->

<svg
   xmlns:dc="http://purl.org/dc/elements/1.1/"
   xmlns:cc="http://creativecommons.org/ns#"
   xmlns:rdf="http://www.w3.org/1999/02/22-rdf-syntax-ns#"
   xmlns:svg="http://www.w3.org/2000/svg"
   xmlns="http://www.w3.org/2000/svg"
   xmlns:sodipodi="http://sodipodi.sourceforge.net/DTD/sodipodi-0.dtd"
   xmlns:inkscape="http://www.inkscape.org/namespaces/inkscape"
   width="2104.7244"
   height="1488.189"
   id="svg3034"
   version="1.1"
   inkscape:version="0.48.4 r9939"
   sodipodi:docname="New document 2">
  <defs
     id="defs3036" />
  <sodipodi:namedview
     id="base"
     pagecolor="#ffffff"
     bordercolor="#666666"
     borderopacity="1.0"
     inkscape:pageopacity="0.0"
     inkscape:pageshadow="2"
     inkscape:zoom="0.35"
     inkscape:cx="375"
     inkscape:cy="634.28571"
     inkscape:document-units="px"
     inkscape:current-layer="layer1"
     showgrid="false"
     inkscape:window-width="1680"
     inkscape:window-height="1028"
     inkscape:window-x="-8"
     inkscape:window-y="-8"
     inkscape:window-maximized="1" />
  <metadata
     id="metadata3039">
    <rdf:RDF>
      <cc:Work
         rdf:about="">
        <dc:format>image/svg+xml</dc:format>
        <dc:type
           rdf:resource="http://purl.org/dc/dcmitype/StillImage" />
        <dc:title></dc:title>
      </cc:Work>
    </rdf:RDF>
  </metadata>
  <g
     inkscape:label="Layer 1"
     inkscape:groupmode="layer"
     id="layer1"
     transform="translate(0,435.82682)">
    <path
       id="path3083"
       d="m 1709.6965,983.90521 6.6386,-2.0135 6.1183,-3.2697 5.361,-4.4021 4.4021,-5.361 3.2697,-6.1184 2.0135,-6.6385 0.6795,-6.9039 0,-1273.91433 -0.6795,-6.90391 -2.0135,-6.63851 -3.2697,-6.11833 -4.4021,-5.36105 -5.361,-4.40208 -6.1183,-3.26972 -6.6386,-2.01349 -6.9039,-0.67942 -1273.91429,0 -6.90355,0.67942 -6.63816,2.01349 -6.11797,3.26972 -5.36247,4.40208 -4.40067,5.36105 -3.27007,6.11833 -2.01349,6.63851 -0.68013,6.90391 0,1273.91433 0.68013,6.9039 2.01349,6.6385 3.27007,6.1184 4.40067,5.361 5.36247,4.4021 6.11797,3.2697 6.63816,2.0135 6.90355,0.6794 1273.91429,0 z m -133.4637,-1231.30898 -2.2966,-1.53578 -1.5358,-2.29658 -0.5378,-2.70707 0.5378,-2.70707 1.5358,-2.29658 2.2966,-1.53578 2.7071,-0.53787 2.707,0.53787 2.2966,1.53578 1.5358,2.29658 0.5379,2.70707 -0.5379,2.70707 -1.5358,2.29658 -2.2966,1.53578 -2.707,0.53787 z m 63.6957,0 -2.2966,-1.53578 -1.5358,-2.29658 -0.5378,-2.70707 0.5378,-2.70707 1.5358,-2.29658 2.2966,-1.53578 2.7071,-0.53787 2.707,0.53787 2.2966,1.53578 1.5358,2.29658 0.5379,2.70707 -0.5379,2.70707 -1.5358,2.29658 -2.2966,1.53578 -2.707,0.53787 z m -1008.51691,0 -2.29588,-1.53578 -1.53436,-2.29658 -0.53858,-2.70707 0.53858,-2.70707 1.53436,-2.29658 2.29588,-1.53578 2.70848,-0.53787 2.70848,0.53787 2.29588,1.53578 1.534,2.29658 0.53894,2.70707 -0.53894,2.70707 -1.534,2.29658 -2.29588,1.53578 -2.70848,0.53787 z m 63.69571,0 -2.29587,-1.53578 -1.53436,-2.29658 -0.53859,-2.70707 0.53859,-2.70707 1.53436,-2.29658 2.29587,-1.53578 2.70849,-0.53787 2.70848,0.53787 2.29588,1.53578 1.534,2.29658 0.53894,2.70707 -0.53894,2.70707 -1.534,2.29658 -2.29588,1.53578 -2.70848,0.53787 z m 97.72799,81.12002 -3.44382,-2.30366 -2.30118,-3.44311 -0.80823,-4.06237 0.80823,-4.06237 2.30118,-3.44311 3.44382,-2.30365 4.06272,-0.80681 4.06237,0.80681 3.44417,2.30365 2.30119,3.44311 0.80823,4.06237 -0.80823,4.06237 -2.30119,3.44311 -3.44417,2.30366 -4.06237,0.80681 z m -46.00246,0 -3.44382,-2.30366 -2.30118,-3.44311 -0.80823,-4.06237 0.80823,-4.06237 2.30118,-3.44311 3.44382,-2.30365 4.06272,-0.80681 4.06237,0.80681 3.44417,2.30365 2.30119,3.44311 0.80822,4.06237 -0.80822,4.06237 -2.30119,3.44311 -3.44417,2.30366 -4.06237,0.80681 z m 743.11707,0 -3.4431,-2.30366 -2.3037,-3.44311 -0.8068,-4.06237 0.8068,-4.06237 2.3037,-3.44311 3.4431,-2.30365 4.0623,-0.80681 4.0624,0.80681 3.4431,2.30365 2.3037,3.44311 0.8068,4.06237 -0.8068,4.06237 -2.3037,3.44311 -3.4431,2.30366 -4.0624,0.80681 z m -697.11461,162.7765343 -3.44382,-2.30119 -2.30118,-3.44381 -0.80823,-4.0627303 0.80823,-4.06237 2.30118,-3.44417 3.44382,-2.30118 4.06272,-0.80823 4.06237,0.80823 3.44417,2.30118 2.30119,3.44417 0.80823,4.06237 -0.80823,4.0627303 -2.30119,3.44381 -3.44417,2.30119 -4.06237,0.80823 z m -46.00246,0 -3.44382,-2.30119 -2.30118,-3.44381 -0.80823,-4.0627303 0.80823,-4.06237 2.30118,-3.44417 3.44382,-2.30118 4.06272,-0.80823 4.06237,0.80823 3.44417,2.30118 2.30119,3.44417 0.80822,4.06237 -0.80822,4.0627303 -2.30119,3.44381 -3.44417,2.30119 -4.06237,0.80823 z m 743.11707,0 -3.4431,-2.30119 -2.3037,-3.44381 -0.8068,-4.0627303 0.8068,-4.06237 2.3037,-3.44417 3.4431,-2.30118 4.0623,-0.80823 4.0624,0.80823 3.4431,2.30118 2.3037,3.44417 0.8068,4.06237 -0.8068,4.0627303 -2.3037,3.44381 -3.4431,2.30119 -4.0624,0.80823 z M 782.74341,595.33302 l -6.90356,-0.68013 -6.63815,-2.01349 -6.11797,-3.27007 -5.36248,-4.40066 -4.40066,-5.36248 -3.27007,-6.11797 -2.01385,-6.63815 -0.67977,-6.90356 0,-495.411126 0.67977,-6.90356 2.01385,-6.63815 3.27007,-6.11798 4.40066,-5.36247 5.36248,-4.40067 6.11797,-3.27006 6.63815,-2.0135 6.90356,-0.68012 636.95719,0 6.9039,0.68012 6.6385,2.0135 6.1183,3.27006 5.3611,4.40067 4.402,5.36247 3.2698,6.11798 2.0135,6.63815 0.6794,6.90356 0,495.411126 -0.6794,6.90356 -2.0135,6.63815 -3.2698,6.11797 -4.402,5.36248 -5.3611,4.40066 -6.1183,3.27007 -6.6385,2.01349 -6.9039,0.68013 z m 10.09188,52.27154 -3.44382,-2.30119 -2.30118,-3.44417 -0.80823,-4.06237 0.80823,-4.06272 2.30118,-3.44382 3.44382,-2.30118 4.06272,-0.80823 4.06237,0.80823 3.44417,2.30118 2.30119,3.44382 0.80823,4.06272 -0.80823,4.06237 -2.30119,3.44417 -3.44417,2.30119 -4.06237,0.80823 z m 697.11461,0 -3.4431,-2.30119 -2.3037,-3.44417 -0.8068,-4.06237 0.8068,-4.06272 2.3037,-3.44382 3.4431,-2.30118 4.0623,-0.80823 4.0624,0.80823 3.4431,2.30118 2.3037,3.44382 0.8068,4.06272 -0.8068,4.06237 -2.3037,3.44417 -3.4431,2.30119 -4.0624,0.80823 z m -743.11707,0 -3.44382,-2.30119 -2.30118,-3.44417 -0.80823,-4.06237 0.80823,-4.06272 2.30118,-3.44382 3.44382,-2.30118 4.06272,-0.80823 4.06237,0.80823 3.44417,2.30118 2.30119,3.44382 0.80822,4.06272 -0.80822,4.06237 -2.30119,3.44417 -3.44417,2.30119 -4.06237,0.80823 z m 743.11707,162.77935 -3.4431,-2.3036 -2.3037,-3.4432 -0.8068,-4.0623 0.8068,-4.0624 2.3037,-3.4431 3.4431,-2.3037 4.0623,-0.8068 4.0624,0.8068 3.4431,2.3037 2.3037,3.4431 0.8068,4.0624 -0.8068,4.0623 -2.3037,3.4432 -3.4431,2.3036 -4.0624,0.8068 z m -743.11707,0 -3.44382,-2.3036 -2.30118,-3.4432 -0.80823,-4.0623 0.80823,-4.0624 2.30118,-3.4431 3.44382,-2.3037 4.06272,-0.8068 4.06237,0.8068 3.44417,2.3037 2.30119,3.4431 0.80822,4.0624 -0.80822,4.0623 -2.30119,3.4432 -3.44417,2.3036 -4.06237,0.8068 z m 46.00246,0 -3.44382,-2.3036 -2.30118,-3.4432 -0.80823,-4.0623 0.80823,-4.0624 2.30118,-3.4431 3.44382,-2.3037 4.06272,-0.8068 4.06237,0.8068 3.44417,2.3037 2.30119,3.4431 0.80823,4.0624 -0.80823,4.0623 -2.30119,3.4432 -3.44417,2.3036 -4.06237,0.8068 z m 783.39751,74.5806 -2.2966,-1.5358 -1.5358,-2.2965 -0.5378,-2.7071 0.5378,-2.7071 1.5358,-2.2966 2.2966,-1.5357 2.7071,-0.5379 2.707,0.5379 2.2966,1.5357 1.5358,2.2966 0.5379,2.7071 -0.5379,2.7071 -1.5358,2.2965 -2.2966,1.5358 -2.707,0.5379 z m 63.6957,0 -2.2966,-1.5358 -1.5358,-2.2965 -0.5378,-2.7071 0.5378,-2.7071 1.5358,-2.2966 2.2966,-1.5357 2.7071,-0.5379 2.707,0.5379 2.2966,1.5357 1.5358,2.2966 0.5379,2.7071 -0.5379,2.7071 -1.5358,2.2965 -2.2966,1.5358 -2.707,0.5379 z m -944.8212,0 -2.29587,-1.5358 -1.53436,-2.2965 -0.53859,-2.7071 0.53859,-2.7071 1.53436,-2.2966 2.29587,-1.5357 2.70849,-0.5379 2.70848,0.5379 2.29588,1.5357 1.534,2.2966 0.53894,2.7071 -0.53894,2.7071 -1.534,2.2965 -2.29588,1.5358 -2.70848,0.5379 z m -63.69571,0 -2.29588,-1.5358 -1.53436,-2.2965 -0.53858,-2.7071 0.53858,-2.7071 1.53436,-2.2966 2.29588,-1.5357 2.70848,-0.5379 2.70848,0.5379 2.29588,1.5357 1.534,2.2966 0.53894,2.7071 -0.53894,2.7071 -1.534,2.2965 -2.29588,1.5358 -2.70848,0.5379 z"
       inkscape:connector-curvature="0"
       style="fill:#d3d3d3;stroke:#000000;stroke-width:1.76932549" />
  </g>
</svg>
